# xmcd
#
# Track frame offsets:
#	150
#	22110
#	51821
#	71458
#	102051
#	119472
#	130881
#	147231
#	159536
#	177230
#	199692
#	215733
#	240415
#	259164
#	266659
#	288146
#	305578
#	319634
#	337457
#
# Disc length: 4707 seconds
#
# Revision: 0
# Processed by: cddbd v1.5.2PL0 Copyright (c) Steve Scherf et al.
# Submitted via: audiograbber 1.83.01
#
DISCID=24126113
DTITLE=Rolling Stones - Confessin´the blues (vol 1)
DYEAR=1900
DGENRE=Blues
TTITLE0=Going away baby - Jagger, Richards and Jimmy Rodgers 1999
TTITLE1=Let me hold you tight - Mike Taylor and Guido Toffeletto 1985
TTITLE2=Trouble no more - Jagger, Richards &Jimmy Rogers 1997
TTITLE3=Oh lord - Richards, Watts, Bobby Keys, Bernard Fowler and Chuck Leavell 1
TTITLE3=992
TTITLE4=Blues in England - Watts and Ben Sidran 1971
TTITLE5=You gotta move - RS 1969
TTITLE6=I got the blues - RS 1969
TTITLE7=The storm - RS 1995
TTITLE8=Honest I do - RS 1995
TTITLE9=No expectation - RS 1995
TTITLE10=Black limousine - RS 1995
TTITLE11=Love in vain - RS 1995
TTITLE12=Cook cook blues - RS 1995
TTITLE13=Natural magic - RS 1995
TTITLE14=Fancy man blues - RS 1995
TTITLE15=Rackeeter blues - Jagger and Chris Jagger 1971
TTITLE16=Little red rooster - RS  US-1966
TTITLE17=How many more years - RS and Howling Wolf  US-1966
TTITLE18=The spider and the fly - RS 1995
EXTD=
EXTT0=
EXTT1=
EXTT2=
EXTT3=
EXTT4=
EXTT5=
EXTT6=
EXTT7=
EXTT8=
EXTT9=
EXTT10=
EXTT11=
EXTT12=
EXTT13=
EXTT14=
EXTT15=
EXTT16=
EXTT17=
EXTT18=
PLAYORDER=
